<svg width="25" height="23" viewBox="0 0 25 23" fill="none" xmlns="http://www.w3.org/2000/svg">
<path d="M24.8565 13.6618L21.7131 21.0982C21.4685 21.6769 21.1182 22.157 20.6973 22.4907C20.2763 22.8244 19.7993 23 19.3138 23H1.95421C1.15026 23 0.649349 21.7965 1.05443 20.8382L4.19783 13.4018C4.44246 12.8231 4.79273 12.343 5.21372 12.0093C5.63471 11.6756 6.11173 11.5 6.59722 11.5H23.9568C24.7607 11.5 25.2616 12.7035 24.8565 13.6618ZM6.59722 9.58333H20.8333V6.70833C20.8333 5.12049 19.9006 3.83333 18.75 3.83333H11.8056L9.02778 0H2.08333C0.932726 0 0 1.28716 0 2.875V19.5288L2.99813 12.4361C3.74193 10.6764 5.12105 9.58333 6.59722 9.58333Z" fill="#0078D7"/>
</svg>
